# xmcd CD database file
#
# Track frame offsets:
#	150
#	14660
#	64897
#	85819
#	99990
#	115963
#	135655
#	146596
#	166506
#	181114
#	204907
#	221549
#	240914
#	256436
#	268690
#
# Disc length: 3755 seconds
#
# Revision: 0
# Processed by: cddbd v1.4PL0 Copyright (c) Steve Scherf et al.
# Submitted via: CDex 1.51
#
DISCID=c90ea90f
DTITLE=Heimo and Friends - A Story For Rudolf
DYEAR=2003
DGENRE=Blues
TTITLE0=When you awake it's the (The Band)
TTITLE1=Season of the witch with (Blommfield, Kooper, Stills)
TTITLE2=Whiskey and women (Canned Heat)
TTITLE3=Till the morning comes (Greatful Dead)
TTITLE4=It's the same old story so (Taste)
TTITLE5=You want to be a rock'n roll star and (Patti Smith)
TTITLE6=Wouldn't it be nice then (Beach Boys)
TTITLE7=Riding with the king (B. B. King)
TTITLE8=I'm sorry to say (Lake)
TTITLE9=Find myself talking about (Eric Clapton)
TTITLE10=The good times (Pretty Things
TTITLE11=I'm a good man (Robert Cray)
TTITLE12=Just like you and (Keb Mo)
TTITLE13=I can't help myself you are a (Four Tops)
TTITLE14=Soul man (Sam&Dave)
EXTD=YEAR: 2003
EXTT0=
EXTT1=
EXTT2=
EXTT3=
EXTT4=
EXTT5=
EXTT6=
EXTT7=
EXTT8=
EXTT9=
EXTT10=
EXTT11=
EXTT12=
EXTT13=
EXTT14=
PLAYORDER=
